<?xml version="1.0" encoding="utf-8"?>
<!-- Generator: Adobe Illustrator 20.1.0, SVG Export Plug-In . SVG Version: 6.00 Build 0)  -->
<svg version="1.1" xmlns="http://www.w3.org/2000/svg" xmlns:xlink="http://www.w3.org/1999/xlink" x="0px" y="0px"
	 viewBox="0 0 310 436.7" style="enable-background:new 0 0 310 436.7;" xml:space="preserve">
<style type="text/css">
	.st0{fill:#EBEBEB;}
	.st1{fill:#CECECE;}
	.st2{fill:#FFFFFF;}
	.st3{fill:#FBB429;}
</style>
<g id="Layer_1">
</g>
<g id="Layer_1_copy">
	<path class="st0" d="M268.7,354.8l-19.9-85.5c0,0,68.2-65.7,60.6-149.8C301.7,35.3,216.9-17.6,130.9,5.4
		C44.8,28.3,30.5,97.3,30.1,108.6c-0.4,11.3,10.2,40.2,2.5,60C25,188.3-2.4,219.3,0.2,228.5c2.6,9.2,26.1,10.8,26.1,10.8
		s0.3,8.9-2.9,10.8c-3.1,1.9-1.4,9.3,3.8,13.5c5.2,4.1,13.7,6.9,13.7,6.9s-9.9,2.2-8.6,9.2c1.3,7,4.8,10.5,12.1,10.8
		c7.3,0.3,9.2-3.2,10.5,0.6c1.3,3.8,2.1,4.1,2.1,4.1s-7.3,19-0.9,33c6.4,14,16.3,14,27.7,11.2c11.5-2.9,33.8-9.2,33.8-9.2l6.1,31.1
		c6.4,45.3-24.4,68.5-25.1,69c18.1,4.1,37,6.2,56.3,6.2c57,0,109.7-18.6,152.2-50.2C303.1,384.6,270.2,356.2,268.7,354.8
		L268.7,354.8L268.7,354.8z"/>
	<g>
		<path class="st1" d="M58.2,332.4c6.4,10.1,15.3,9.8,25.6,7.2c11.5-2.9,33.8-9.2,33.8-9.2l6.1,31.1c2.2,15.4,0,28.3-3.8,38.6l0,0
			c21.3-30.4,5.6-53.6,8.4-65.2c2.8-11.5,47.4-22.5,56.8-29.6c9.4-7.2,16.1-27,16.1-27s-9.4,14.3-19.3,23.1
			c-10,8.7-87.5,31.5-102.3,36.5C65.5,342.6,58.9,333.3,58.2,332.4z"/>
		<path class="st1" d="M109.7,12.5c53.6-19.6,117.1-9,155.6,30.3c45.9,46.9,56.6,132.3-23.6,222.7l27,89.3l-19.9-85.5
			c0,0,68.2-65.7,60.6-149.8C301.7,35.3,216.9-17.6,130.9,5.4C123.3,7.4,116.2,9.8,109.7,12.5L109.7,12.5L109.7,12.5z"/>
	</g>
	<path class="st2" d="M170.6,47.1c27.9,0,50.5,23.1,50.5,51.6c0,19.3-10.4,36.1-25.7,45v23.7c0,2.8-2.3,5.1-5,5.1h-37
		c-2.8,0-5-2.3-5-5.1V145c-16.7-8.4-28.3-26-28.3-46.3C120.1,70.2,142.8,47.1,170.6,47.1L170.6,47.1z"/>
	<g>
		<path class="st3" d="M155.2,171.8h30.9c2.2,0,4,1.4,4,3.1s-1.8,3.1-4,3.1c2.2,0,4,1.4,4,3.1c0,1.7-1.8,3.1-4,3.1
			c2.2,0,4,1.4,4,3.1v0c0,1.7-1.8,3.1-4,3.1h-30.9c-2.2,0-4-1.4-4-3.1v0c0-1.7,1.8-3.1,4-3.1c-2.2,0-4-1.4-4-3.1
			c0-1.7,1.8-3.1,4-3.1c-2.2,0-4-1.4-4-3.1C151.2,173.2,153,171.8,155.2,171.8z"/>
		<path class="st3" d="M156.7,97.4l8,65.3h5.9h5.9l8-65.3l2.9,0.5l-8.2,66.7l-0.2,1.4h-1.3h-7.2h-7.2h-1.3l-0.2-1.4l-8.2-66.7
			L156.7,97.4L156.7,97.4L156.7,97.4z"/>
		<path class="st3" d="M175.4,89.1l-1.1,7.3l27.4-4.1l-37.2,15.5l1.4-10.1l-24.4,4.6L175.4,89.1L175.4,89.1L175.4,89.1z"/>
	</g>
	<path class="st2" d="M168.2,203.8v0.9h-3.1v-0.9H164c-1.2,0-2.2-0.7-2.7-1.8h-0.1c-1.6,0-2.9-1.4-2.9-3.2c0-1.1,0.5-2.1,1.3-2.6
		h-4.5c-1.6,0-2.9-1.4-2.9-3.2c0-1.7,1.3-3.2,2.9-3.2h31c1.6,0,2.9,1.4,2.9,3.2c0,1.7-1.3,3.2-2.9,3.2h-4.5c0.8,0.6,1.3,1.5,1.3,2.6
		c0,1.7-1.3,3.2-2.9,3.2h-0.1c-0.5,1.1-1.5,1.8-2.7,1.8H176v0.9H173v-0.9H168.2L168.2,203.8z"/>
</g>
</svg>
